<svg id="Layer_1" data-name="Layer 1" xmlns="http://www.w3.org/2000/svg" viewBox="0 0 440.73 92.6"><defs><style>.cls-1{fill:#3d8ab7;}.cls-2{fill:#fff;}</style></defs><path class="cls-1" d="M357.21,66.46a5.85,5.85,0,0,1-4-1.24,4.45,4.45,0,0,1-1.42-3.55q0-4.53,5.41-4.53h8.17v4.35a7.62,7.62,0,0,1-3.19,3.64,9.47,9.47,0,0,1-5,1.33m4.09-38.1a61.87,61.87,0,0,0-23.27,5l4.44,11.9a44.77,44.77,0,0,1,7.77-2.58,31,31,0,0,1,6.8-.89,9.86,9.86,0,0,1,6.21,1.69,5.68,5.68,0,0,1,2.13,4.71v.17H353.57q-9.15.09-13.9,3.87T334.92,63q0,6.93,4.35,11t12,4.13a20.23,20.23,0,0,0,8.31-1.6,14.48,14.48,0,0,0,5.81-4.52v5.32H383V46q0-8.35-5.73-13T361.3,28.36M332.08,62.73a18.29,18.29,0,0,1-5.5,1.42,3.89,3.89,0,0,1-3-1.15,5,5,0,0,1-1.07-3.47V43h11.9V31.56h-11.9V18.15H304.64V31.56H298V43h6.66V62.29q0,7.37,4.62,11.63t12.34,4.26a33.31,33.31,0,0,0,7.42-.84,24.41,24.41,0,0,0,6.26-2.26ZM280.93,48.79H265.74a11.82,11.82,0,0,1,2.76-5.95,6.68,6.68,0,0,1,5.15-2.22A6.79,6.79,0,0,1,279,42.93a8.19,8.19,0,0,1,1.95,5.86m-7.46-20.34a27.7,27.7,0,0,0-13.32,3.11,22.16,22.16,0,0,0-9,8.75,26.11,26.11,0,0,0-3.2,13.1,25.74,25.74,0,0,0,3.15,12.92,21.67,21.67,0,0,0,9,8.61A29.42,29.42,0,0,0,274,78a32.15,32.15,0,0,0,12.21-2.22,24.82,24.82,0,0,0,9.28-6.49l-9.32-9.14q-5.07,4.62-10.66,4.61a9.43,9.43,0,0,1-5.9-1.86,10.24,10.24,0,0,1-3.51-5.33h32.5c.06-.59.09-1.51.09-2.75q0-12.26-6.66-19.32t-18.56-7.06m-70,14.12h20.78L202.6,66.82V77.38h45.12V64H225.16l21.67-24.25V29.07H203.49ZM173.92,66.46a5.88,5.88,0,0,1-4-1.24,4.45,4.45,0,0,1-1.42-3.55c0-3,1.8-4.53,5.42-4.53h8.17v4.35a7.69,7.69,0,0,1-3.2,3.64,9.46,9.46,0,0,1-5,1.33M178,28.36a61.87,61.87,0,0,0-23.27,5l4.44,11.9A44.59,44.59,0,0,1,167,42.66a30.83,30.83,0,0,1,6.79-.89A9.91,9.91,0,0,1,180,43.46a5.68,5.68,0,0,1,2.13,4.71v.17H170.27c-6.09.06-10.73,1.35-13.89,3.87s-4.75,6.11-4.75,10.79,1.45,8.3,4.35,11,6.89,4.13,12,4.13a20.22,20.22,0,0,0,8.3-1.6,14.52,14.52,0,0,0,5.82-4.52v5.32h17.58V46q0-8.35-5.73-13T178,28.36M133.6,60.69a22.53,22.53,0,0,1-9.42,2.57A15.22,15.22,0,0,1,116.1,61a15.72,15.72,0,0,1-5.73-6.12,18.22,18.22,0,0,1-2.08-8.71,18.1,18.1,0,0,1,2-8.57A15.53,15.53,0,0,1,116,31.56a15,15,0,0,1,8-2.22,21.09,21.09,0,0,1,8.39,1.86,24.93,24.93,0,0,1,7.5,5l10.48-12.61a36.69,36.69,0,0,0-12.07-7A41.42,41.42,0,0,0,124.1,14a37.73,37.73,0,0,0-17.81,4.17A31,31,0,0,0,89.37,46.21a32,32,0,0,0,4.35,16.61,31.07,31.07,0,0,0,12,11.59,34.89,34.89,0,0,0,17.14,4.22A47.77,47.77,0,0,0,137,76.32a44.52,44.52,0,0,0,12.52-5.86V45.15H133.6ZM46.14,33.6,53.6,53.94H38.5Zm35.7,43.78L56.17,15.13h-19L10.61,77.38h19l3.73-9.94H58.48l3.64,9.94Z"/><path class="cls-1" d="M407.71,60.17a21,21,0,1,0-20.69-21,20.86,20.86,0,0,0,20.69,21"/><path class="cls-2" d="M425.76,53.06a4.36,4.36,0,1,0-4.35-4.36,4.36,4.36,0,0,0,4.35,4.36"/><path class="cls-1" d="M425.76,51a2.28,2.28,0,1,0-2.28-2.28A2.28,2.28,0,0,0,425.76,51"/><path class="cls-2" d="M412.27,45.44a9.83,9.83,0,0,1-4.1,1.12,6.62,6.62,0,0,1-3.53-1,6.83,6.83,0,0,1-2.49-2.67,8.3,8.3,0,0,1,0-7.52,6.62,6.62,0,0,1,2.46-2.65,6.47,6.47,0,0,1,3.5-1,9.23,9.23,0,0,1,3.66.81A10.85,10.85,0,0,1,415,34.76l4.56-5.5a15.79,15.79,0,0,0-5.26-3.05,18.06,18.06,0,0,0-6.19-1.13,16.45,16.45,0,0,0-7.76,1.82A13.48,13.48,0,0,0,393,39.13a14,14,0,0,0,1.89,7.24,13.65,13.65,0,0,0,5.23,5.05,15.25,15.25,0,0,0,7.47,1.83,20.86,20.86,0,0,0,6.15-1,19.29,19.29,0,0,0,5.45-2.56v-11h-6.92Z"/></svg>